<?xml version="1.0" encoding="UTF-8" standalone="no"?>
<!-- Created with Inkscape (http://www.inkscape.org/) -->

<svg
   xmlns:dc="http://purl.org/dc/elements/1.1/"
   xmlns:cc="http://creativecommons.org/ns#"
   xmlns:rdf="http://www.w3.org/1999/02/22-rdf-syntax-ns#"
   xmlns:svg="http://www.w3.org/2000/svg"
   xmlns="http://www.w3.org/2000/svg"
   xmlns:sodipodi="http://sodipodi.sourceforge.net/DTD/sodipodi-0.dtd"
   xmlns:inkscape="http://www.inkscape.org/namespaces/inkscape"
   width="753.32391mm"
   height="117.15305mm"
   viewBox="0 0 753.32391 117.15305"
   version="1.1"
   id="svg2431"
   inkscape:version="0.92.4 (5da689c313, 2019-01-14)"
   sodipodi:docname="My Job Opportunities.svg">
  <defs
     id="defs2425" />
  <sodipodi:namedview
     id="base"
     pagecolor="#ffffff"
     bordercolor="#666666"
     borderopacity="1.0"
     inkscape:pageopacity="0.0"
     inkscape:pageshadow="2"
     inkscape:zoom="0.24748737"
     inkscape:cx="-1166.0571"
     inkscape:cy="-961.46988"
     inkscape:document-units="mm"
     inkscape:current-layer="layer1"
     showgrid="false"
     fit-margin-top="0"
     fit-margin-left="0"
     fit-margin-right="0"
     fit-margin-bottom="0"
     inkscape:window-width="2560"
     inkscape:window-height="1369"
     inkscape:window-x="-8"
     inkscape:window-y="-8"
     inkscape:window-maximized="1" />
  <metadata
     id="metadata2428">
    <rdf:RDF>
      <cc:Work
         rdf:about="">
        <dc:format>image/svg+xml</dc:format>
        <dc:type
           rdf:resource="http://purl.org/dc/dcmitype/StillImage" />
        <dc:title></dc:title>
      </cc:Work>
    </rdf:RDF>
  </metadata>
  <g
     inkscape:label="Layer 1"
     inkscape:groupmode="layer"
     id="layer1"
     transform="translate(239.80756,-103.93956)">
    <path
       style="fill:#003da5;fill-opacity:1;stroke-width:0.4295449"
       d="m 65.800317,192.86348 c -0.164394,-0.16439 -0.298899,-12.80721 -0.298899,-28.09514 0,-24.23952 0.0828,-27.86497 0.647231,-28.33339 0.450093,-0.37354 1.714619,-0.47537 4.151377,-0.33431 2.984519,0.17278 3.621051,0.34721 4.292538,1.17647 0.433614,0.53549 0.791347,1.29047 0.794952,1.67773 0.01738,1.85588 0.714135,1.95242 2.851977,0.39511 4.386652,-3.19546 5.471117,-3.55689 10.672121,-3.55689 4.421592,0 4.870855,0.0809 6.996605,1.25848 4.786771,2.65193 7.709591,7.37184 8.929591,14.41991 2.07287,11.97527 -2.37698,23.0586 -10.807409,26.91817 -4.652265,2.12987 -10.811639,2.0894 -14.730257,-0.0968 -1.033831,-0.57677 -2.044267,-1.04867 -2.245431,-1.04867 -0.201165,0 -0.418435,3.52763 -0.482822,7.83921 l -0.117053,7.83918 -5.177788,0.11997 c -2.847789,0.0659 -5.312292,-0.0146 -5.476702,-0.17898 z m 21.902082,-22.08985 c 1.60096,-0.60487 3.469796,-2.41064 4.417226,-4.26813 2.350041,-4.60739 2.301694,-13.72823 -0.09758,-18.41973 -1.253436,-2.4509 -3.168944,-3.48705 -6.44642,-3.48705 -3.058955,0 -5.187155,0.84607 -7.295175,2.90019 l -1.610796,1.56961 v 9.55574 9.55572 l 1.47548,1.12539 c 0.811511,0.61897 2.019606,1.28874 2.684663,1.48835 1.742639,0.52308 5.463876,0.5122 6.872681,-0.0202 z m 24.488771,22.08985 c -0.16439,-0.16439 -0.2989,-12.79222 -0.2989,-28.06183 0,-21.02064 0.12517,-27.8881 0.51546,-28.27836 0.68664,-0.68667 6.26253,-0.65875 7.64589,0.0383 0.65502,0.33003 1.32,1.24902 1.70494,2.35616 0.34708,0.9983 0.80481,1.81508 1.01716,1.81508 0.21234,0 1.0793,-0.60866 1.92658,-1.35259 2.73601,-2.40225 5.84456,-3.55451 10.06424,-3.73061 4.94719,-0.20645 7.36117,0.6346 10.71625,3.73368 8.59819,7.94209 8.52992,26.97445 -0.12777,35.63216 -5.44647,5.44649 -14.94543,6.6678 -20.5914,2.64752 -0.65531,-0.4666 -1.30232,-0.84838 -1.43783,-0.84838 -0.13557,0 -0.29895,3.62429 -0.36322,8.05396 l -0.11689,8.05397 -5.17779,0.11998 c -2.84779,0.0659 -5.3123,-0.0146 -5.47671,-0.179 z m 22.75792,-22.52892 c 1.01793,-0.49278 2.26452,-1.47699 2.77018,-2.18713 3.24517,-4.55743 3.41977,-16.69577 0.30312,-21.07271 -2.63272,-3.69732 -10.09363,-3.26582 -13.65445,0.78972 l -1.30751,1.48917 v 9.22027 c 0,8.77782 0.043,9.26331 0.89712,10.11738 2.51635,2.51636 7.61376,3.27843 10.99154,1.6433 z m -280.30297,9.43716 c -1.74366,-0.20229 -3.435,-0.58747 -3.7585,-0.85596 -1.17633,-0.97626 -0.41867,-7.83178 0.97987,-8.86625 0.59956,-0.44347 1.63983,-0.51824 4.24101,-0.30491 4.28298,0.3513 6.75786,-0.25652 8.61783,-2.11647 2.44234,-2.44236 2.47875,-2.79765 2.73479,-26.68054 l 0.23485,-21.90678 h 5.79885 5.79887 l 0.11137,21.16312 c 0.092,17.4811 -8.2e-4,21.70357 -0.53375,24.26929 -1.80781,8.70328 -7.19689,13.94062 -15.7773,15.33303 -3.03289,0.49217 -3.93966,0.48847 -8.44795,-0.0345 z m 50.420261,0.0355 c -7.815571,-1.04087 -13.684581,-5.716 -16.571641,-13.20057 -1.1747,-3.04538 -1.62937,-11.04555 -0.84301,-14.83343 1.25229,-6.03223 5.52397,-11.56112 10.86228,-14.05922 8.67911,-4.06143 19.781565,-2.26531 25.643437,4.14851 3.707502,4.0566 5.131047,7.74121 5.487303,14.20308 0.295262,5.35553 -0.298053,8.73798 -2.245674,12.80239 -3.83574,8.00464 -12.500107,12.24873 -22.332695,10.93924 z m 8.447291,-9.72139 c 3.1143,-1.81885 4.653827,-5.84003 4.653827,-12.1556 0,-9.41216 -2.932746,-13.51398 -9.664753,-13.51741 -4.201737,-0.002 -6.436193,1.24192 -8.048793,4.4813 -1.599983,3.21405 -2.232523,8.00461 -1.629453,12.34057 1.01664,7.30944 4.074653,10.20655 10.39519,9.84829 1.809365,-0.1026 3.391216,-0.46989 4.293982,-0.99715 z m 42.229942,9.72397 c -2.394531,-0.33329 -4.997094,-1.5246 -6.985139,-3.19744 l -1.310048,-1.10233 -0.499885,1.51465 c -0.274936,0.83306 -0.872311,1.71395 -1.327501,1.95758 -0.455191,0.24361 -2.51764,0.3871 -4.583205,0.31886 l -3.755589,-0.12403 v -30.92724 -30.92724 l 4.878288,-0.12191 c 3.229014,-0.0807 5.08059,0.0461 5.476702,0.37474 0.483422,0.40122 0.598397,2.64211 0.598397,11.66318 v 11.16658 l 1.509656,-1.15147 c 0.830311,-0.63332 2.618294,-1.67107 3.973296,-2.30611 2.159143,-1.0119 2.994537,-1.15461 6.759087,-1.15461 4.078823,0 4.43266,0.0744 7.016115,1.47506 4.170501,2.26111 7.108752,6.4905 8.444223,12.15476 0.757612,3.21338 0.848283,11.37447 0.162023,14.59161 -2.265269,10.62066 -10.671536,17.1434 -20.356485,15.79536 z m 3.924837,-9.40111 c 3.234144,-1.46868 5.049078,-5.01518 5.543232,-10.83184 0.535212,-6.29984 -1.134437,-12.08198 -4.045835,-14.01108 -2.947941,-1.95332 -8.362009,-1.04617 -11.534186,1.93259 l -1.396028,1.31089 v 9.63234 c 0,9.4427 0.01916,9.65023 0.969556,10.54315 2.417569,2.27119 7.172604,2.91831 10.463261,1.42395 z m 63.737558,9.40191 c -4.03387,-0.47303 -6.198809,-1.12048 -10.26229,-3.06906 -2.856832,-1.36993 -4.3340177,-2.45472 -7.1225667,-5.23053 -3.9238788,-3.90589 -5.64150114,-6.6301 -7.300792,-11.57925 -1.6061707,-4.79069 -2.120894,-9.6926 -1.5289743,-14.56084 1.6215612,-13.33652 9.767649,-22.95256 22.120198,-26.11183 4.613791,-1.18 12.135928,-1.18768 16.713061,-0.0171 9.859522,2.52163 17.474034,9.69314 20.765959,19.55782 1.039317,3.11443 1.148951,4.06011 1.170251,10.09431 0.02062,5.81973 -0.103091,7.06354 -0.982415,9.87953 -3.748299,12.00423 -12.949468,19.61834 -25.443276,21.05468 -3.967827,0.45616 -4.090107,0.4559 -8.129155,-0.0178 z m 9.778152,-10.91043 c 3.017005,-0.80315 5.571076,-2.35284 7.71999,-4.68416 3.491417,-3.78773 4.840916,-8.02323 4.833091,-15.16911 -0.0082,-7.48269 -1.751342,-12.27667 -5.81419,-15.98987 -3.5284,-3.22476 -6.157832,-4.11241 -12.221599,-4.12582 -4.348613,-0.01 -5.251429,0.12062 -7.544168,1.08799 -3.352123,1.41439 -5.451213,3.09022 -7.261098,5.79699 -4.2553597,6.3641 -4.8258983,17.2981 -1.280712,24.54418 2.025239,4.13946 6.387359,7.64033 10.822309,8.68557 2.523045,0.59463 8.257231,0.51686 10.746377,-0.14579 z m 140.562579,10.89301 c -5.24178,-0.62927 -8.84547,-2.42194 -12.37869,-6.15778 -3.78468,-4.00174 -5.6622,-9.2858 -5.6622,-15.9356 0,-6.83907 1.95583,-12.10049 6.00917,-16.16535 4.00334,-4.01471 9.00674,-5.93717 15.48522,-5.94986 10.05091,-0.0197 17.93674,5.90749 20.38982,15.32552 0.82937,3.18417 0.82996,10.39295 9.6e-4,13.57513 -2.81944,10.82388 -12.01596,16.728 -23.84461,15.30794 z m 6.65795,-9.04216 c 2.44271,-0.67483 4.74884,-3.24712 5.64255,-6.29377 1.05461,-3.59509 0.95039,-10.75087 -0.2005,-13.7671 -1.24035,-3.25069 -1.98774,-4.23258 -4.0523,-5.32387 -1.39683,-0.73833 -2.51752,-0.95772 -4.82612,-0.94478 -3.44183,0.0193 -5.01635,0.67596 -6.97825,2.91044 -2.05766,2.34355 -2.47173,4.11636 -2.47173,10.58263 0,5.3602 0.0852,5.98052 1.12613,8.20024 2.05385,4.37971 6.4357,6.10715 11.76022,4.63621 z m 70.18891,9.06483 c -3.5704,-0.60394 -6.03158,-2.38984 -7.76109,-5.6317 -0.97936,-1.83568 -1.00596,-2.19212 -1.13369,-15.1799 -0.0846,-8.60974 -0.29258,-13.49502 -0.58953,-13.85284 -0.25548,-0.30782 -1.35753,-0.55273 -2.48729,-0.55273 -2.72265,0 -3.45033,-0.83401 -3.45033,-3.95451 0,-1.38534 0.22484,-2.56805 0.53692,-2.82421 0.29533,-0.24241 1.61869,-0.57459 2.94083,-0.73817 1.32213,-0.16358 2.6339,-0.43957 2.91502,-0.61332 0.28112,-0.17374 0.96406,-2.71633 1.51764,-5.65021 1.20255,-6.37327 1.35645,-6.78937 2.69999,-7.30018 1.49769,-0.56942 5.87749,-0.48919 6.48548,0.11884 0.35284,0.35284 0.51545,2.45317 0.51545,6.65795 v 6.14248 h 5.13944 c 4.64158,0 5.1825,0.0805 5.58409,0.83085 0.51552,0.96326 0.58954,6.00792 0.0995,6.77915 -0.22285,0.35071 -2.0216,0.56257 -5.47012,0.64433 l -5.13812,0.12175 -0.11412,12.12797 c -0.10975,11.66651 -0.0812,12.16091 0.75172,12.99374 1.03788,1.03789 2.99486,1.11958 4.77447,0.19931 0.70882,-0.36654 1.65432,-0.55042 2.1011,-0.40862 1.07602,0.34152 4.36124,5.56832 4.03469,6.41927 -0.38827,1.0118 -5.2301,3.20799 -8.11155,3.67929 -2.85698,0.46728 -3.02899,0.46702 -5.84055,-0.008 z m 31.0255,-0.0277 c -4.6088,-0.90575 -8.59222,-4.27228 -10.40557,-8.79404 -1.00394,-2.50349 -1.02761,-2.87348 -1.16143,-18.16021 -0.10098,-11.53272 -0.005,-15.764 0.37018,-16.21532 0.69024,-0.83167 9.52319,-0.87967 10.20719,-0.0556 0.30261,0.3646 0.50497,5.63646 0.58955,15.35623 0.11478,13.19956 0.21104,14.95163 0.88937,16.19301 1.20161,2.1989 2.65275,2.90802 5.87879,2.87269 2.9222,-0.0319 4.53965,-0.62871 7.2134,-2.66113 l 1.39601,-1.06119 v -15.11195 c 0,-11.18102 0.1341,-15.24603 0.51546,-15.6274 0.76493,-0.76495 9.53177,-0.70425 10.17468,0.0704 0.3508,0.42267 0.45523,6.43617 0.37477,21.58463 l -0.11153,20.99873 -3.76127,0.12419 c -3.51932,0.11625 -3.83021,0.0552 -4.83239,-0.94695 -0.58912,-0.5891 -1.07112,-1.45506 -1.07112,-1.92436 0,-1.37947 -0.7833,-1.47365 -2.21773,-0.26664 -2.12633,1.78919 -5.19285,3.15782 -8.15066,3.63776 -3.07833,0.49951 -3.29247,0.49902 -5.89774,-0.0129 z m 116.73798,0.0277 c -3.57445,-0.60464 -6.35284,-2.65648 -7.94898,-5.87046 -0.73809,-1.48618 -0.82683,-2.89568 -0.94031,-14.93455 -0.0821,-8.71307 -0.28527,-13.4862 -0.58956,-13.85282 -0.26137,-0.31494 -1.35058,-0.55934 -2.49278,-0.55934 -2.72261,0 -3.45033,-0.83401 -3.45033,-3.95451 0,-1.38534 0.22487,-2.56805 0.53694,-2.82421 0.29531,-0.24241 1.6187,-0.57459 2.94084,-0.73817 1.32214,-0.16358 2.62447,-0.43377 2.89415,-0.60042 0.26967,-0.16667 0.97954,-2.89927 1.57746,-6.07247 0.60162,-3.1927 1.37197,-6.05426 1.72479,-6.40712 0.4039,-0.40386 1.76694,-0.70146 3.71771,-0.81169 4.18545,-0.23649 4.21946,-0.17748 4.21946,7.31571 v 5.93152 h 5.13943 c 5.936,0 6.03287,0.0635 6.02286,3.94506 -0.0113,4.34193 0.21246,4.17379 -5.73232,4.31084 l -5.21519,0.1203 -0.11398,12.12795 c -0.10974,11.66653 -0.0812,12.16092 0.7517,12.99375 1.04534,1.04534 2.9975,1.11822 4.81254,0.17963 0.95844,-0.49564 1.57863,-0.57074 2.23376,-0.27049 1.11531,0.51114 4.15279,5.54813 3.83893,6.36603 -0.36704,0.95654 -5.28979,3.15664 -8.08653,3.61407 -2.85699,0.46729 -3.02898,0.46704 -5.84052,-0.008 z m 57.81546,-0.0221 c -10.41737,-1.33302 -17.14873,-9.04965 -18.0582,-20.7014 -1.03889,-13.30983 7.91617,-23.51413 20.63547,-23.51413 7.58826,0 13.68522,3.51631 16.67147,9.61501 1.48604,3.035 1.99054,5.3795 2.00326,9.31025 0.0172,5.24782 1.0742,4.87806 -14.66633,5.12924 l -13.45839,0.2148 0.13134,1.28863 c 0.48978,4.80592 3.15403,8.30071 7.23175,9.48614 3.52015,1.02332 6.70138,0.58896 11.34169,-1.54858 2.97551,-1.37065 3.95865,-1.64521 4.77694,-1.3341 1.11948,0.42563 4.22397,4.14071 4.22397,5.05474 0,0.73007 -3.71608,3.66383 -6.09546,4.81226 -3.88236,1.87384 -10.04203,2.78797 -14.73747,2.18714 z m 11.1354,-27.83981 c 0.12808,-0.20709 -0.056,-1.34867 -0.4088,-2.53685 -2.11727,-7.1295 -12.82178,-7.61695 -16.20136,-0.73775 -0.34818,0.70875 -0.76051,1.82019 -0.9163,2.46989 l -0.28325,1.18124 h 8.7885 c 4.8337,0 8.89325,-0.16943 9.02121,-0.37653 z m 25.38426,27.83833 c -4.09693,-0.68477 -9.4082,-3.03879 -10.89305,-4.82792 -1.06118,-1.27864 2.66241,-6.31116 4.66966,-6.31116 0.41612,0 2.178,0.67426 3.91536,1.49835 3.67049,1.74108 6.33356,2.21504 8.76577,1.56012 4.22954,-1.13889 5.47325,-5.28449 2.1935,-7.31148 -0.78988,-0.48818 -3.73793,-1.67643 -6.55129,-2.64058 -9.2234,-3.16094 -12.17215,-6.17584 -12.19314,-12.46681 -0.013,-3.9089 1.00672,-6.61175 3.39134,-8.98817 5.47528,-5.45656 15.3058,-6.33856 23.2794,-2.08867 1.3645,0.72726 2.82035,1.69741 3.2353,2.15588 0.71798,0.79336 0.71824,0.90065 0.005,2.22421 -1.37116,2.54603 -2.64029,3.82819 -3.78941,3.82819 -0.6033,0 -2.42683,-0.53208 -4.05237,-1.18237 -5.25552,-2.10255 -10.25157,-1.43469 -11.27723,1.50755 -0.97218,2.78879 0.76914,4.36242 7.1116,6.42667 5.56604,1.81157 7.58688,2.77655 9.57395,4.57174 2.60076,2.34962 3.43975,4.26807 3.43975,7.86533 0,4.09645 -1.14552,7.02033 -3.75333,9.58036 -4.05782,3.98345 -10.45009,5.70543 -17.07127,4.59876 z m -287.14403,-1.23133 c -0.28841,-0.53891 -0.44465,-7.92362 -0.44465,-21.01701 0,-17.77834 0.0805,-20.26669 0.67501,-20.86117 0.79605,-0.79608 5.32671,-0.93394 7.36303,-0.22408 1.42457,0.49661 2.27104,1.92765 2.27104,3.83939 0,1.98417 0.66937,1.88935 2.80889,-0.398 2.77011,-2.96144 5.63508,-4.32186 9.10173,-4.32186 3.54572,0 5.70072,0.87052 5.70072,2.3028 0,1.81934 -1.24225,7.6476 -1.76404,8.27631 -0.38614,0.46528 -1.23953,0.53779 -3.80823,0.32357 -4.96746,-0.41428 -7.70265,0.80481 -9.94456,4.43227 -0.94353,1.52667 -0.9581,1.76843 -0.85111,14.12566 0.0744,8.58326 -0.0424,12.85491 -0.36762,13.4627 -0.43937,0.82095 -0.85875,0.89027 -5.386,0.89027 -4.4143,0 -4.95439,-0.0838 -5.35421,-0.83085 z m 112.39505,0.55703 c -0.16442,-0.16439 -0.29892,-9.6995 -0.29892,-21.1891 0,-15.6752 0.12875,-21.01888 0.51546,-21.40565 0.72073,-0.72071 5.6375,-0.64825 7.45187,0.1099 1.11681,0.46664 1.56333,0.95935 1.75985,1.94189 0.36928,1.84638 0.83164,1.96737 2.53969,0.66461 0.82008,-0.62553 2.59969,-1.65689 3.95467,-2.29195 2.15916,-1.01191 2.99453,-1.15461 6.75912,-1.15461 3.83725,0 4.55724,0.12857 6.75003,1.20537 2.99498,1.47068 5.55745,4.28094 6.87268,7.53712 0.95935,2.37519 0.97976,2.76087 0.98077,18.5336 v 16.10793 h -5.36931 -5.3693 l -0.21477,-15.24883 c -0.19655,-13.95669 -0.28341,-15.36221 -1.02467,-16.58665 -1.19672,-1.97663 -2.79751,-2.74435 -5.69957,-2.73344 -2.77382,0.01 -5.14585,0.89931 -7.33799,2.74983 l -1.39061,1.17394 -0.11283,15.32258 -0.11267,15.32257 -5.17779,0.11998 c -2.84779,0.0659 -5.31231,-0.0146 -5.47669,-0.17898 z m 47.46647,-0.24164 c -0.67816,-0.67817 -0.74572,-40.77662 -0.0708,-42.03772 0.39978,-0.74705 0.93989,-0.83085 5.35419,-0.83085 4.4143,0 4.95442,0.0838 5.3542,0.83085 0.28827,0.53865 0.44466,7.8752 0.44466,20.86117 0,12.98597 -0.15635,20.32251 -0.44466,20.86116 -0.39923,0.74595 -0.93907,0.83085 -5.28341,0.83085 -3.19075,0 -5.01429,-0.17554 -5.3542,-0.51546 z m 54.12268,0 c -0.67818,-0.67817 -0.74574,-40.77662 -0.0708,-42.03772 0.39979,-0.74705 0.9399,-0.83085 5.3542,-0.83085 4.4143,0 4.95442,0.0838 5.3542,0.83085 0.28826,0.53865 0.44467,7.8752 0.44467,20.86117 0,12.98597 -0.15634,20.32251 -0.44467,20.86116 -0.39924,0.74595 -0.93907,0.83085 -5.28342,0.83085 -3.19073,0 -5.01428,-0.17554 -5.35417,-0.51546 z M 368.85208,130.9776 c -1.49839,-0.28716 -4.23739,-3.14583 -4.72896,-4.9356 -1.1946,-4.34953 1.96999,-8.49956 6.48394,-8.50308 2.48652,-0.002 4.19167,0.8128 5.61446,2.68261 2.14609,2.82031 1.9912,5.80952 -0.44046,8.50107 -1.91912,2.12426 -4.02871,2.81081 -6.92898,2.255 z m 54.24551,-0.003 c -1.34018,-0.32559 -3.58623,-2.18604 -4.29593,-3.55841 -0.82838,-1.60192 -0.8258,-4.84447 0.005,-6.45131 1.03417,-1.99993 3.49778,-3.42737 5.91522,-3.42737 6.28166,0 9.33411,6.58906 5.18169,11.18528 -1.89669,2.09943 -4.24085,2.875 -6.80614,2.25179 z"
       id="path2444"
       inkscape:connector-curvature="0" />
    <g
       transform="translate(138.87981,318.29969)"
       id="layer1-1"
       inkscape:label="Layer 1">
      <path
         inkscape:connector-curvature="0"
         id="path4548"
         d="m -329.57466,-97.690285 c -2.0494,-0.94109 -2.77844,-2.422935 -2.77746,-5.645455 0.003,-8.83767 8.33395,-21.45525 20.23079,-30.63926 3.41765,-2.63833 3.95795,-3.27738 4.6475,-5.49696 0.94051,-3.02739 2.41002,-10.9012 2.5655,-13.74623 l 0.14821,-2.71198 h -0.66254 c -1.74494,0 -6.88977,4.68479 -14.59928,13.29386 -2.16757,2.42048 -4.28289,4.54247 -4.70073,4.71554 -1.62374,0.67258 -3.957,-0.46564 -4.31596,-2.10543 -0.36344,-1.66026 1.53849,-9.21397 4.93707,-19.60814 1.97049,-6.02651 2.68622,-7.6189 3.51832,-7.82774 0.80769,-0.20272 2.91163,0.73021 3.30519,1.46558 0.33214,0.62061 0.0284,2.60474 -0.70799,4.62458 -3.80389,10.43386 -6.21521,18.05257 -5.64057,17.82168 0.10513,-0.0422 1.4846,-1.50556 3.06551,-3.25181 4.14411,-4.57754 7.54237,-7.83259 10.56561,-10.12034 5.2345,-3.96107 7.99644,-4.51138 9.76782,-1.94624 0.73276,1.06112 1.47697,3.60477 1.47697,5.04819 0,1.13572 -0.99905,9.26353 -1.30986,10.65642 -0.15572,0.69785 -0.13162,0.99069 0.0812,0.98714 0.16643,-0.003 2.98151,-0.88305 6.25573,-1.95617 l 5.95313,-1.95113 c -0.23089,3.38319 -0.0891,3.38319 -0.0891,3.38319 -0.94837,0 -7.63831,2.31641 -10.2658,3.58136 -2.2892,1.10209 -3.06397,1.61345 -3.47271,2.29205 -0.28936,0.4804 -1.39237,3.49284 -2.45114,6.69429 -3.31178,10.01403 -5.37997,14.87252 -8.33385,19.57749 -3.56153,5.67287 -8.16625,10.47052 -11.79053,12.284515 -2.44049,1.22151 -3.70901,1.35797 -5.401,0.581 z m 4.5421,-5.668015 c 2.42434,-2.59162 3.45028,-4.33688 8.50723,-14.47186 4.56565,-9.15035 5.80641,-11.90625 5.36045,-11.90625 -0.11991,0 -1.27507,0.78315 -2.56702,1.74034 -5.32682,3.94654 -9.58454,9.04444 -12.62826,15.1202 -2.87579,5.74056 -3.66372,10.04862 -2.14481,11.72699 0.44723,0.49419 0.46784,0.49404 1.17374,-0.009 0.39519,-0.28139 1.42959,-1.27176 2.29867,-2.20081 z m -21.81939,-30.13519 c -0.51877,-0.51877 -0.36687,-2.63863 0.48515,-6.77036 0.44146,-2.14079 1.33859,-6.92846 1.99362,-10.63924 2.02105,-11.44946 4.36887,-21.46928 8.89648,-37.9677 2.2665,-8.25907 3.01896,-11.43795 2.76705,-11.68986 -0.24103,-0.24103 -3.02958,3.99972 -9.94852,15.12944 -9.09594,14.63164 -10.04945,16.03478 -11.58977,17.05504 -1.47964,0.98008 -2.1636,1.00822 -3.20506,0.1319 -1.07212,-0.90214 -1.78814,-2.9286 -2.41116,-6.82401 -0.87349,-5.46157 -1.13988,-9.71409 -0.96405,-15.39001 l 0.16392,-5.29167 -0.6407,1.20701 c -0.35238,0.66385 -1.61061,4.89057 -2.79605,9.39271 -1.18545,4.50213 -2.92944,11.0432 -3.87554,14.5357 -0.94609,3.4925 -3.07714,11.79791 -4.73567,18.45648 -1.65853,6.65856 -3.14105,12.34107 -3.2945,12.6278 -0.44216,0.82618 -1.18955,1.11306 -1.97154,0.75676 -1.21965,-0.55571 -1.05044,-1.87789 1.97556,-15.43688 3.32576,-14.90214 3.94883,-17.33915 8.59113,-33.60208 2.1185,-7.42156 3.92546,-14.00728 4.01545,-14.63493 0.0915,-0.63797 0.0116,-1.77501 -0.18121,-2.57859 -0.31236,-1.30205 -0.30014,-1.48681 0.12972,-1.96179 0.91528,-1.01138 3.04638,-1.85907 4.67372,-1.85907 1.85512,0 2.52596,0.51941 3.39578,2.6292 1.0748,2.60702 1.32299,5.34401 1.59704,17.61143 0.14304,6.40292 0.29019,12.15179 0.32701,12.77528 l 0.0669,1.13361 1.47464,-2.05965 c 0.81105,-1.13281 2.11108,-3.13122 2.88894,-4.44091 5.84163,-9.83549 17.05745,-27.07812 19.96403,-30.69166 0.81936,-1.01865 1.84367,-2.02315 2.27625,-2.23224 0.71735,-0.34672 0.85022,-0.33279 1.51111,0.15845 1.37701,1.02354 1.12651,3.18363 -1.64918,14.22104 -2.06914,8.22786 -4.75652,19.73238 -9.27625,39.71108 -3.44053,15.20825 -5.5389,24.10353 -5.91375,25.06916 -0.39783,1.02486 -1.76666,1.78387 -3.21923,1.78507 -0.66212,5.3e-4 -1.34673,-0.14189 -1.52136,-0.31651 z"
         style="fill:#003da5;fill-opacity:1;stroke-width:0.26458332"
         sodipodi:nodetypes="ccscscsscsscscccsssscsccscscccccsscscccccscccsccccccccsccsscccscsccccscssscccc" />
    </g>
  </g>
</svg>
